<svg xmlns="http://www.w3.org/2000/svg" width="56" height="28" viewBox="0 0 56 28">
  <defs>
    <radialGradient id="feature_3-a" cx="14.976%" cy="32.657%" r="264.182%" fx="14.976%" fy="32.657%" gradientTransform="scale(.49845 1) rotate(25.032 .225 .666)">
      <stop offset="0%" stop-color="#5A90E0"/>
      <stop offset="100%" stop-color="#FFF" stop-opacity="0"/>
    </radialGradient>
  </defs>
  <g fill="none" fill-rule="evenodd" transform="translate(0 -14)">
    <polygon points="0 0 56 0 56 56 0 56"/>
    <path fill="url(#feature_3-a)" d="M46.7733793,41.8475911 C46.5033867,41.8908415 46.2264538,41.9133127 45.9442724,41.9133127 L34.1547988,41.9133127 C33.8594445,41.9133127 33.5698402,41.8886945 33.2879257,41.8413983 C33.0060112,41.8886945 32.7164069,41.9133127 32.4210526,41.9133127 L5.20123839,41.9133127 C2.32867375,41.9133127 3.5178771e-16,39.5846389 0,36.7120743 C-2.96611408e-16,34.2900584 1.65547651,32.2546997 3.8966188,31.675809 C3.62056046,31.0409141 3.46749226,30.3401901 3.46749226,29.6037152 C3.46749226,26.7311505 5.79616601,24.4024768 8.66873065,24.4024768 L11.3144576,24.4024768 C11.1718318,23.848337 11.0959752,23.2673924 11.0959752,22.6687307 C11.0959752,18.8386445 14.2008736,15.7337461 18.0309598,15.7337461 C19.8279804,15.7337461 21.4653619,16.4172429 22.6973179,17.53845 C24.6037753,15.3691344 27.3989643,14 30.5139319,14 C35.548038,14 39.746951,17.5758868 40.7091683,22.3261578 C42.1664922,21.548908 43.8305598,21.1083591 45.5975232,21.1083591 C51.3426525,21.1083591 56,25.7657066 56,31.5108359 C56,36.8584101 51.9649152,41.2635398 46.7733793,41.8475911 Z"/>
  </g>
</svg>
