<svg xmlns="http://www.w3.org/2000/svg" width="43" height="42" viewBox="0 0 43 42">
  <defs>
    <radialGradient id="feature_1-a" cx="14.976%" cy="32.657%" r="164.37%" fx="14.976%" fy="32.657%" gradientTransform="matrix(.72589 .68006 -.67332 .73315 .26 -.015)">
      <stop offset="0%" stop-color="#5A90E0"/>
      <stop offset="100%" stop-color="#FFF" stop-opacity="0"/>
    </radialGradient>
  </defs>
  <g fill="none" fill-rule="evenodd" transform="translate(-6 -7)">
    <path fill="url(#feature_1-a)" fill-rule="nonzero" d="M10.71,16.0766667 C12.3433333,14.42 13.9766667,12.9266667 14.7,13.23 C15.8666667,13.6966667 14.7,15.6333333 14,16.7766667 C13.4166667,17.7566667 7.32666667,25.8533333 7.32666667,31.5 C7.32666667,34.4866667 8.44666667,36.96 10.4533333,38.4533333 C12.2033333,39.76 14.5133333,40.1566667 16.6133333,39.5266667 C19.11,38.8033333 21.1633333,36.26 23.7533333,33.0633333 C26.5766667,29.5866667 30.3566667,25.0366667 33.2733333,25.0366667 C37.0766667,25.0366667 37.1233333,27.3933333 37.38,29.2133333 C28.56,30.7066667 24.8266667,37.7766667 24.8266667,41.7433333 C24.8266667,45.71 28.1866667,48.9533333 32.3166667,48.9533333 C36.12,48.9533333 42.3266667,45.85 43.26,34.72 L49,34.72 L49,28.8866667 L43.2366667,28.8866667 C42.8866667,25.0366667 40.6933333,19.0866667 33.8333333,19.0866667 C28.5833333,19.0866667 24.08,23.5433333 22.3066667,25.7133333 C20.9533333,27.4166667 17.5,31.5 16.9633333,32.06 C16.38,32.76 15.3766667,34.02 14.3733333,34.02 C13.3233333,34.02 12.6933333,32.0833333 13.5333333,29.54 C14.35,26.9966667 16.8,22.8666667 17.85,21.3266667 C19.67,18.6666667 20.8833333,16.8466667 20.8833333,13.6733333 C20.8833333,8.61 17.0566667,7 15.0266667,7 C11.9466667,7 9.26333333,9.33333333 8.68,9.91666667 C7.84,10.7566667 7.14,11.4566667 6.62666667,12.0866667 L10.71,16.0766667 Z M32.3866667,43.2833333 C31.6633333,43.2833333 30.66,42.6766667 30.66,41.6033333 C30.66,40.2033333 32.3633333,36.47 37.3566667,35.1633333 C36.6566667,41.44 34.02,43.2833333 32.3866667,43.2833333 Z"/>
    <polygon points="0 0 56 0 56 56 0 56"/>
  </g>
</svg>
