<svg xmlns="http://www.w3.org/2000/svg" width="52" height="52" viewBox="0 0 52 52">
  <defs>
    <radialGradient id="feature_4-a" cx="14.976%" cy="32.657%" r="164.024%" fx="14.976%" fy="32.657%" gradientTransform="scale(.99397 1) rotate(42.961 .15 .328)">
      <stop offset="0%" stop-color="#5A90E0"/>
      <stop offset="100%" stop-color="#FFF" stop-opacity="0"/>
    </radialGradient>
  </defs>
  <g fill="none" fill-rule="evenodd" transform="translate(-2 -2)">
    <polygon points="0 0 56 0 56 56 0 56"/>
    <path fill="url(#feature_4-a)" fill-rule="nonzero" d="M52.9666667,44.3333333 L31.7333333,23.1 C33.8333333,17.7333333 32.6666667,11.4333333 28.2333333,7 C23.5666667,2.33333333 16.5666667,1.4 10.9666667,3.96666667 L21,14 L14,21 L3.73333333,10.9666667 C0.933333333,16.5666667 2.1,23.5666667 6.76666667,28.2333333 C11.2,32.6666667 17.5,33.8333333 22.8666667,31.7333333 L44.1,52.9666667 C45.0333333,53.9 46.4333333,53.9 47.3666667,52.9666667 L52.7333333,47.6 C53.9,46.6666667 53.9,45.0333333 52.9666667,44.3333333 Z"/>
  </g>
</svg>
