<svg xmlns="http://www.w3.org/2000/svg" width="152" height="83" viewBox="0 0 152 83">
  <g fill="none" fill-rule="evenodd">
    <rect width="80" height="57" x="40" y="25" fill="#6A9BE3"/>
    <g fill="#445472" transform="translate(32)">
      <path d="M0,28 L96,28 C96,33.5228475 91.5228475,38 86,38 C81.5707543,38 77.8140802,35.1203791 76.5,31.1311597 C75.1859198,35.1203791 71.4292457,38 67,38 C62.5707543,38 58.8140802,35.1203791 57.5,31.1311597 C56.1859198,35.1203791 52.4292457,38 48,38 C43.5707543,38 39.8140802,35.1203791 38.5,31.1311597 C37.1859198,35.1203791 33.4292457,38 29,38 C24.5707543,38 20.8140802,35.1203791 19.5,31.1311597 C18.1859198,35.1203791 14.4292457,38 10,38 C4.4771525,38 0,33.5228475 0,28 Z"/>
      <polygon points="14 0 82 0 96 29 0 29"/>
    </g>
    <rect width="12" height="2" x="86" y="7" fill="#FFF"/>
    <rect width="6" height="2" x="100" y="7" fill="#FFF"/>
    <rect width="17" height="29" x="55" y="51" fill="#FFF" stroke="#445472" stroke-width="4"/>
    <rect width="14" height="11" x="89" y="50" fill="#FFF" stroke="#445472" stroke-width="4"/>
    <path stroke="#445472" stroke-linejoin="round" stroke-width="4" d="M0 80L140 80M142 80L152 80"/>
    <path fill="#FFF" stroke="#445472" stroke-width="4" d="M130.016471,72.8317992 C131.207345,73.5731068 132,74.8939861 132,76.4 C132,78.7195959 130.119596,80.6 127.8,80.6 L112.2,80.6 C109.880404,80.6 108,78.7195959 108,76.4 C108,74.2408422 109.629278,72.4622227 111.725466,72.2265106 C111.643223,71.8305703 111.6,71.4203328 111.6,71 C111.6,67.6862915 114.286292,65 117.6,65 C120.049801,65 122.156685,66.4682033 123.088736,68.5726939 C123.843713,67.8464798 124.869716,67.4 126,67.4 C128.319596,67.4 130.2,69.2804041 130.2,71.6 C130.2,72.0286274 130.135792,72.4422583 130.016471,72.8317992 Z"/>
    <rect width="4" height="14" x="12" y="68" fill="#445472"/>
    <path fill="#FFF" stroke="#445472" stroke-width="4" d="M14,66.7142857 C20.1624407,66.7142857 24,62.8767264 24,58.1428571 C24,54.9869443 20.6666667,47.6059919 14,36 C7.33333333,47.6059919 4,54.9869443 4,58.1428571 C4,62.8767264 7.83755929,66.7142857 14,66.7142857 Z"/>
  </g>
</svg>
