<svg xmlns="http://www.w3.org/2000/svg" width="152" height="118" viewBox="0 0 152 118">
  <g fill="none" fill-rule="evenodd">
    <g transform="translate(11)">
      <path fill="#6A9BE3" d="M14.0987767,46.3046815 L32.8358087,42 L52.9223441,45.6809093 C57.8153569,46.5775664 61.6478398,50.4001516 62.5571469,55.2908293 L70.4979181,98 L0.497918075,98 L4.85194658,56.7406559 C5.38974095,51.6444461 9.10437991,47.4521038 14.0987767,46.3046815 Z"/>
      <path fill="#445472" d="M38.3173828,40.0996094 L47.9394531,38.8876953 C47.9394531,31.1558828 47.9394531,26.0950104 47.9394531,23.7050781 C47.9394531,12.1070984 44.6806641,0 31.2724609,0 C17.8642578,2.08386576e-15 15,5.10221557 15,16.7001953 C15,21.650459 16.0152995,30.0179721 18.0458984,41.8027344 L38.3173828,40.0996094 Z"/>
      <path fill="#E0ECF6" d="M23.2295039,29.2283894 C23.15355,29.2326859 23.0770293,29.2348633 23,29.2348633 C20.790861,29.2348633 19,27.4440023 19,25.2348633 C19,23.0257243 20.790861,21.2348633 23,21.2348633 C23.1068376,21.2348633 23.2126969,21.2390518 23.3174226,21.2472737 C25.1169593,19.3351395 27.0205918,16.252715 29.0283203,12 C33.5583223,15.179533 37.6563546,17.7137291 41.3224171,19.6025882 C41.8326028,19.3665626 42.4009214,19.2348633 43,19.2348633 C45.209139,19.2348633 47,21.0257243 47,23.2348633 C47,25.1576767 45.6432805,26.7636112 43.8349088,27.1475996 C43.5887581,29.9420229 42.8033686,33.0336079 41,35.1967773 C39.9429623,36.464711 38.5423921,37.3995755 37.0045883,38.0356976 C37.5152013,41.1375502 37.7705078,42.6884766 37.7705078,42.6884766 C39,46.7431641 37.3508179,48.5913086 34.0371094,48.5913086 C30.7234009,48.5913086 28.3095703,47.3657227 28.3095703,44.6152344 C28.3095703,43.0360893 28.5097771,41.112078 28.9101907,38.8432004 C27.6164551,38.5762466 26.5080358,38.104682 25.7475586,37.4555664 C24.3304911,36.2460094 23.6028572,32.6668054 23.2295039,29.2283894 Z"/>
    </g>
    <polygon fill="#445472" points="35 91 75 91 75 94 35 94"/>
    <path fill="#445472" stroke="#445472" stroke-width="4" d="M7.11419515,61 L8.89197293,93 L65.1080271,93 L66.8858048,61 L7.11419515,61 Z"/>
    <rect width="2" height="8" x="12" y="69" fill="#FFF"/>
    <rect width="2" height="4" x="12" y="79" fill="#FFF"/>
    <path stroke="#445472" stroke-linejoin="round" stroke-width="4" d="M0 96L140 96M142 96L152 96"/>
    <g fill="#6A9BE3" transform="translate(86 75)">
      <path d="M23 19L28 19 28 32C28 33.1045695 27.1045695 34 26 34L25 34C23.8954305 34 23 33.1045695 23 32L23 19zM15 23L20 23 20 27C20 28.1045695 19.1045695 29 18 29L17 29C15.8954305 29 15 28.1045695 15 27L15 23zM35 23L40 23 40 27C40 28.1045695 39.1045695 29 38 29L37 29C35.8954305 29 35 28.1045695 35 27L35 23zM40 19L45 19 45 32C45 33.1045695 44.1045695 34 43 34L42 34C40.8954305 34 40 33.1045695 40 32L40 19zM48 19L51 19 51 41.5C51 42.3284271 50.3284271 43 49.5 43L49.5 43C48.6715729 43 48 42.3284271 48 41.5L48 19zM21.2328232 19C21.0798314 18.1722462 21 17.3201041 21 16.45 21 8.46948537 27.7157288 2 36 2 44.2842712 2 51 8.46948537 51 16.45 51 17.3201041 50.9201686 18.1722462 50.7671768 19L21.2328232 19z"/>
      <path d="M12.0689655,19.1694336 C15.9006474,19.1694336 19.4488009,20.1013733 21.659668,18.5463867 C23.2947744,17.3963544 24.137931,14.1576103 24.137931,11.9310345 C24.137931,6.69385151 18.7344711,2.44827586 12.0689655,2.44827586 C5.40345992,2.44827586 5.68434222e-14,6.69385151 5.68434222e-14,11.9310345 C5.68434222e-14,14.4636336 0.159667969,17.9233398 2.39404297,18.5463867 C4.62841797,19.1694336 8.62676785,19.1694336 12.0689655,19.1694336 Z"/>
      <path d="M0.345164332,0.116311961 C-0.234573619,4.42360566 0.115922519,6.99648304 1.39665275,7.8349441 C3.19028329,9.00918778 7.14647045,7.21094909 6.96979391,4.959376 C6.84035081,3.30974787 4.63214095,1.69539319 0.345164332,0.116311961 Z"/>
      <path d="M1.23124507,2.11631196 C0.895230069,4.61281108 1.09837695,6.10404584 1.84068572,6.59001626 C2.88027053,7.27060563 5.17326897,6.22834995 5.07086759,4.92334254 C4.99584262,3.96722125 3.71596845,3.03154439 1.23124507,2.11631196 Z"/>
      <path d="M18.2364943,1.72413793 C17.6567563,6.03143163 18.0072525,8.60430901 19.2879827,9.44277007 C21.0816132,10.6170138 25.0378004,8.81877506 24.8611238,6.56720197 C24.7316808,4.91757384 22.5234709,3.30321916 18.2364943,1.72413793 Z" transform="matrix(-1 0 0 1 42.832 0)"/>
      <path d="M20.122575,3.72413793 C19.78656,6.22063705 19.9897069,7.71187181 20.7320157,8.19784223 C21.7716005,8.8784316 24.0645989,7.83617592 23.9621975,6.53116851 C23.8871726,5.57504722 22.6072984,4.63937036 20.122575,3.72413793 Z" transform="matrix(-1 0 0 1 43.931 0)"/>
    </g>
    <path fill="#445472" d="M96 89.9428711C97.1045695 89.9428711 98 90.1045695 98 89 98 87.8954305 97.1045695 87 96 87 94.8954305 87 94 87.8954305 94 89 94 90.1045695 94.8954305 89.9428711 96 89.9428711zM88 84L90.0499084 84C90.2558266 84.5825962 90.8114462 85 91.4645556 85 92.117665 85 92.6732845 84.5825962 92.8792027 84L94.9291111 84C94.6864963 85.6961471 93.2277915 87 91.4645556 87 89.7013196 87 88.2426148 85.6961471 88 84zM97 84L99.0499084 84C99.2558266 84.5825962 99.8114462 85 100.464556 85 101.117665 85 101.673285 84.5825962 101.879203 84L103.929111 84C103.686496 85.6961471 102.227792 87 100.464556 87 98.7013196 87 97.2426148 85.6961471 97 84z"/>
  </g>
</svg>
